<svg version="1.1" id="Layer_1" xmlns="http://www.w3.org/2000/svg" xmlns:xlink="http://www.w3.org/1999/xlink" x="0px" y="0px"
	 width="100%" viewBox="0 0 1024 1024" enable-background="new 0 0 1024 1024" xml:space="preserve">
<path fill="#000000" opacity="1.000000" stroke="none" 
	d="
M1.000000,709.468628 
	C9.149203,699.210022 14.712719,687.783386 21.130623,676.914856 
	C39.249615,646.230713 55.709778,614.592773 75.730110,584.999878 
	C98.675880,551.082886 126.567673,522.475891 161.994202,501.702515 
	C190.138733,485.199188 220.141739,473.919220 252.905975,470.490479 
	C303.257843,465.221283 348.891083,476.757690 388.686005,508.486328 
	C416.434235,530.610046 432.239532,559.729431 436.026367,595.080383 
	C437.129211,605.375793 436.147522,615.707764 434.129791,625.895325 
	C433.934357,626.882080 433.772491,627.883301 432.530579,628.189270 
	C430.958832,627.921570 430.631989,626.466919 430.052277,625.336975 
	C415.130524,596.251709 390.968384,578.673401 360.054779,570.042419 
	C318.651001,558.482666 277.737701,577.683777 258.271057,615.996765 
	C238.262299,655.376587 246.946472,704.163574 277.045044,734.844727 
	C295.528412,753.685791 318.732483,763.697632 344.931183,766.710510 
	C384.127655,771.218079 421.588806,764.667603 457.520782,748.786499 
	C478.250275,739.624573 498.113312,728.704956 518.208801,718.270081 
	C544.274048,704.735168 570.807800,692.347900 599.373901,684.990723 
	C627.859375,677.654419 656.727844,672.906799 686.274719,673.949951 
	C690.940613,674.114746 693.742310,673.037231 695.210754,668.306702 
	C696.988647,662.579224 699.690857,657.164856 702.789978,652.028381 
	C704.996643,648.370972 704.521912,645.378845 702.234436,641.933228 
	C696.435852,633.198975 690.445862,624.583435 685.621033,615.218140 
	C683.684082,611.458557 684.195801,608.886475 687.149109,606.010864 
	C698.488770,594.969360 709.717407,583.811951 720.865723,572.577087 
	C723.306396,570.117554 725.231995,569.945251 728.194031,571.835938 
	C737.879272,578.018066 747.802979,583.825500 757.540466,589.927795 
	C759.926575,591.423157 761.929749,591.724792 764.446716,590.301514 
	C770.702454,586.764221 777.384277,584.110779 784.214600,581.966614 
	C788.913391,580.491638 791.333862,577.565613 792.408936,572.923218 
	C794.699585,563.030640 797.312073,553.211609 799.534485,543.304565 
	C800.283020,539.967896 801.881653,538.568237 805.251282,538.358765 
	C822.405090,537.292725 839.561523,537.637817 856.720825,538.022827 
	C859.803711,538.092041 861.550171,539.563721 862.240234,542.687012 
	C864.537048,553.082764 867.067810,563.426941 869.349670,573.825745 
	C870.087585,577.188538 871.487488,579.618286 874.962585,580.735107 
	C882.905884,583.287964 890.637329,586.394775 897.852844,590.622009 
	C900.360657,592.091187 902.223328,591.078918 904.270752,589.791626 
	C913.860962,583.761658 923.589172,577.942505 933.032776,571.692627 
	C936.399048,569.464783 938.684448,569.401428 941.740051,572.134705 
	C953.677246,582.812317 964.891846,594.192322 975.748535,605.950867 
	C978.156738,608.559204 978.416138,610.793884 976.587708,613.929504 
	C970.962158,623.577148 965.218872,633.147095 958.832642,642.306458 
	C956.777100,645.254639 956.465759,647.747375 958.317566,650.974243 
	C961.804688,657.050903 964.354309,663.606506 966.395386,670.293396 
	C967.505005,673.928467 969.580505,675.841919 973.139587,676.770569 
	C983.772400,679.544922 994.344299,682.554749 1004.991516,685.270508 
	C1007.790588,685.984497 1009.020447,687.104553 1009.455383,690.169250 
	C1011.928894,707.600403 1011.645020,725.023376 1010.116394,742.494446 
	C1009.812317,745.969177 1008.053772,747.285889 1004.917725,748.043945 
	C994.239441,750.625366 983.632507,753.502075 972.952393,756.075012 
	C970.040771,756.776428 968.396851,758.239319 967.302185,761.004944 
	C964.669922,767.655396 962.254211,774.441406 958.282715,780.459351 
	C956.002136,783.915100 956.703064,786.747925 958.871460,790.032898 
	C965.017761,799.344360 970.747498,808.930542 976.878357,818.252563 
	C978.840942,821.236755 978.260193,823.139282 976.064819,825.631287 
	C965.143616,838.027832 952.714294,848.903015 941.148682,860.644409 
	C938.502319,863.330994 935.973877,863.679626 932.750671,861.627014 
	C923.482605,855.724854 914.059998,850.064697 904.812073,844.131714 
	C901.846008,842.228821 899.257019,841.951599 895.968384,843.422180 
	C889.285645,846.410583 882.445068,849.060669 875.595581,851.654907 
	C872.539673,852.812439 870.760315,854.448730 870.012817,857.885376 
	C867.574768,869.093994 864.653137,880.196472 862.092346,891.379822 
	C861.322266,894.742859 859.517639,895.945862 856.179077,896.111755 
	C839.700500,896.930664 823.240112,897.144775 806.753296,896.130737 
	C802.005737,895.838684 799.691467,894.318298 798.733887,889.382751 
	C796.738037,879.096802 793.982239,868.959900 791.640930,858.738342 
	C790.820984,855.158752 788.813782,853.089661 785.360352,851.719482 
	C778.553955,849.019043 771.856323,846.013977 765.255371,842.840332 
	C762.517395,841.523926 760.391113,841.620972 757.865234,843.248047 
	C748.345032,849.380554 738.648071,855.240479 729.171631,861.438354 
	C725.634888,863.751587 723.117126,863.568298 720.004517,860.573975 
	C708.350281,849.362549 697.146423,837.729065 686.139954,825.888306 
	C683.462952,823.008362 682.829956,820.680298 685.187927,817.206177 
	C691.264221,808.253540 696.878662,798.987244 702.960022,790.038086 
	C705.107422,786.878174 705.488831,784.256042 703.536072,780.913696 
	C699.833435,774.575928 696.859497,767.862488 694.448608,760.926147 
	C693.417297,757.959106 691.518677,756.308044 688.492554,755.541931 
	C683.975159,754.398376 679.516052,753.021912 675.041199,751.713684 
	C667.890869,749.623291 661.165100,752.101318 654.430786,753.781616 
	C624.678711,761.205444 597.695740,774.608154 572.149475,791.392944 
	C540.831177,811.970337 510.912628,834.684998 478.377136,853.391113 
	C441.351349,874.678833 402.136322,890.089966 359.401459,894.943665 
	C308.621613,900.711121 259.771210,893.692810 213.428452,871.459717 
	C168.069443,849.698608 133.639694,816.549988 109.902016,772.230408 
	C108.833321,770.235107 108.129501,767.861877 105.029434,766.752014 
	C102.044937,770.930542 98.941940,775.173889 95.943115,779.489624 
	C72.292679,813.525635 41.418564,839.484741 5.801578,860.138672 
	C4.518187,860.882996 3.085560,861.369995 1.361234,861.988403 
	C1.000000,811.312439 1.000000,760.624878 1.000000,709.468628 
M901.641907,732.107361 
	C909.165161,698.720337 890.105774,662.824951 857.587952,650.321411 
	C831.007996,640.101074 806.227173,644.660400 784.568848,662.706421 
	C763.783081,680.025513 755.128967,702.900024 759.653015,729.638855 
	C766.702148,771.301025 806.790894,796.143433 845.060547,788.096436 
	C874.862549,781.829956 893.685913,762.594482 901.641907,732.107361 
z"/>
<path fill="#000000" opacity="1.000000" stroke="none" 
	d="
M632.897827,129.191345 
	C643.737427,155.214813 654.729187,180.756851 666.031982,206.166946 
	C667.417358,209.281464 668.997131,210.773651 672.627563,210.871033 
	C689.169617,211.314774 704.915283,215.320724 719.717834,222.694336 
	C723.937317,224.796204 726.421326,224.850830 729.495361,220.422409 
	C748.183838,193.500473 774.408997,176.356491 804.174133,163.959244 
	C821.006287,156.948624 838.562134,152.413376 856.312378,148.544220 
	C863.454041,146.987473 866.421387,148.837982 868.475403,155.930984 
	C869.724976,160.245850 870.908081,164.590988 871.847595,168.981064 
	C872.572815,172.369812 874.443542,173.283875 877.621094,172.645493 
	C881.209534,171.924576 884.868591,171.529404 888.428772,170.699905 
	C893.623230,169.489594 896.734924,171.845581 898.752197,176.278351 
	C899.578430,178.093948 900.412964,179.948105 900.886719,181.872604 
	C901.753052,185.391541 903.704102,186.257782 907.163818,185.510620 
	C912.436462,184.371948 914.810242,185.761246 916.339355,191.244186 
	C920.050232,204.550461 923.444946,217.944550 927.025513,231.287582 
	C938.283508,273.239838 949.520264,315.197876 960.869751,357.125397 
	C964.697388,371.265533 968.855835,385.315918 972.826843,399.417511 
	C974.940430,406.923187 972.933899,410.382141 965.077881,411.598450 
	C938.744995,415.675507 912.451355,419.949402 886.776123,427.246887 
	C858.088135,435.400635 830.735229,446.558899 806.301331,464.049835 
	C799.395630,468.993256 799.149170,469.319641 802.399719,477.096924 
	C806.059082,485.852386 810.145996,494.428497 813.966736,503.117920 
	C814.607483,504.575195 815.884338,505.924469 815.286743,507.818146 
	C813.761536,509.579010 811.633179,509.017273 809.706421,509.153015 
	C804.557617,509.515839 799.399231,509.751373 794.254272,510.158234 
	C784.641785,510.918274 778.241272,516.234131 774.407715,524.765076 
	C770.568054,533.309692 768.881592,542.544556 766.279480,551.485962 
	C765.596313,553.833374 765.588806,556.452698 763.615173,558.559814 
	C760.031921,558.062500 757.517029,555.414917 754.536804,553.781128 
	C747.971436,550.182007 741.685364,546.126892 734.637512,543.380554 
	C723.964966,539.221802 714.323120,541.385376 706.309937,548.735962 
	C692.323242,561.566040 678.805664,574.918030 665.333435,588.294983 
	C654.772400,598.781372 650.822998,614.082153 660.190369,629.396118 
	C663.035217,634.046936 665.855469,638.712891 668.464905,643.006470 
	C667.983215,644.495178 667.317078,644.974426 666.444519,645.075317 
	C657.021912,646.165344 647.583557,647.132080 638.179321,648.360413 
	C634.797729,648.802124 633.499023,647.232666 632.363586,644.404785 
	C620.201294,614.114258 607.875122,583.889526 595.717834,553.596985 
	C580.273621,515.114502 564.877869,476.612366 549.587891,438.068390 
	C539.272827,412.065399 529.177307,385.975342 518.981689,359.924927 
	C518.070984,357.598083 517.207336,355.250092 516.207214,352.962006 
	C515.573364,351.511810 515.331238,349.417999 513.134216,349.574921 
	C511.328735,349.703918 511.032959,351.543549 510.487427,352.878845 
	C507.905334,359.198975 505.392151,365.547272 502.857330,371.886688 
	C488.205139,408.531311 473.531281,445.167328 458.915741,481.826569 
	C454.598389,492.655548 450.486572,503.566376 446.183197,514.401062 
	C445.352448,516.492676 444.955231,518.928894 442.830078,520.326233 
	C440.144867,520.160706 439.393372,517.844727 438.078430,516.246887 
	C436.916718,514.835205 436.123352,513.081543 434.833130,511.820923 
	C427.708557,504.859924 424.140137,497.403809 430.018311,487.724945 
	C431.957367,484.532166 430.716278,481.630035 426.988831,480.143311 
	C423.898041,478.910492 420.768707,477.728668 417.808289,476.225159 
	C413.214172,473.891937 409.407593,473.378876 406.593292,478.906128 
	C405.204742,481.633270 403.259613,479.826263 401.630829,478.653748 
	C384.206024,466.110657 365.178406,456.627686 345.151825,449.041260 
	C326.765656,442.076233 307.632660,438.741302 288.112061,437.409637 
	C284.755798,437.180695 282.526428,436.819000 283.524017,432.588837 
	C284.109161,430.107666 282.580963,428.537659 280.289459,427.663940 
	C275.156708,425.706879 270.011017,423.779694 264.921173,421.715668 
	C262.220703,420.620605 260.359558,421.338623 259.240784,423.915039 
	C257.717255,427.423767 256.285828,430.973297 254.861343,434.523956 
	C254.023575,436.612183 253.004456,438.648315 250.524567,438.880798 
	C243.028931,439.583527 235.851120,441.846954 228.481827,443.148499 
	C228.052261,443.224365 227.557724,442.932312 227.157181,442.828094 
	C226.170929,441.383331 226.968887,440.204712 227.454422,438.994263 
	C244.935455,395.412262 262.386597,351.818237 279.902985,308.250458 
	C300.840240,256.174194 321.834137,204.120682 342.801392,152.056442 
	C349.395752,135.681717 356.122375,119.357964 362.483093,102.892914 
	C364.232056,98.365654 366.501495,96.107994 371.594940,96.633041 
	C375.882568,97.075035 380.259735,96.896828 384.582153,96.684990 
	C389.128937,96.462158 389.786530,98.369820 388.152191,102.106247 
	C386.484039,105.920013 384.957397,109.795517 383.350342,113.636269 
	C381.983521,116.902687 382.865997,118.948662 386.335510,120.155563 
	C390.576263,121.630753 394.715424,123.407753 398.861267,125.143204 
	C402.560669,126.691765 405.312653,126.102325 406.908875,122.095947 
	C408.757904,117.455032 410.516205,112.763374 412.659332,108.258072 
	C415.089417,103.149597 411.838928,100.635429 408.534851,97.364807 
	C458.250183,97.364807 507.965485,97.364807 558.224792,97.364807 
	C557.291321,102.825623 555.388855,107.399521 553.307434,111.880653 
	C551.452576,115.874046 552.123108,118.480377 556.567078,119.978920 
	C560.821411,121.413513 564.991760,123.124741 569.118103,124.902306 
	C572.265625,126.258209 574.321472,125.192146 575.609741,122.347786 
	C577.945374,117.190460 580.208801,111.997955 582.374878,106.767357 
	C583.372437,104.358475 582.940369,102.244362 580.507019,100.719345 
	C579.345520,99.991417 577.600037,99.672012 577.582703,97.680222 
	C578.927063,96.229172 580.702209,96.786751 582.261719,96.776054 
	C592.926880,96.702911 603.594299,96.824471 614.257385,96.656456 
	C617.575684,96.604172 619.409424,97.754745 620.686951,100.853348 
	C624.558655,110.243889 628.696350,119.524780 632.897827,129.191345 
M741.383240,316.028107 
	C735.590820,294.139374 729.605347,272.298798 724.128845,250.331314 
	C722.575806,244.101883 718.950500,240.821777 713.507019,238.243362 
	C697.380249,230.604584 680.380005,227.415741 662.662476,227.352264 
	C638.640747,227.266205 615.344788,231.890610 592.285767,238.092697 
	C585.451599,239.930862 585.095642,240.636795 586.934265,247.454697 
	C592.004028,266.253448 597.028015,285.064545 602.048401,303.876556 
	C613.461670,346.643127 625.613403,389.214325 636.086914,432.228424 
	C637.085449,436.329193 639.438660,436.250671 642.423706,435.233582 
	C650.794312,432.381531 659.366943,430.296387 667.987793,428.399475 
	C700.365540,421.275146 732.665344,420.571899 764.874268,429.513763 
	C766.826904,430.055908 768.888184,431.369507 771.887207,429.728821 
	C761.811768,392.190643 751.697144,354.506409 741.383240,316.028107 
M798.001038,185.544296 
	C775.017883,196.774323 755.061157,211.556549 741.130859,233.550034 
	C739.114136,236.734024 738.445862,239.651031 739.438782,243.362991 
	C753.494080,295.907867 767.423096,348.486572 781.434570,401.043213 
	C783.477173,408.705170 785.789062,416.295410 788.308899,425.077850 
	C820.130493,389.662170 859.843567,370.756500 904.800903,362.404846 
	C905.345764,359.577484 904.529236,357.541656 903.978882,355.471710 
	C897.564453,331.346619 891.099182,307.234985 884.741821,283.094940 
	C874.952271,245.922501 865.135803,208.756409 855.614685,171.515030 
	C854.410095,166.803238 852.630005,166.311096 848.391479,167.363693 
	C831.199585,171.633148 814.624512,177.525696 798.001038,185.544296 
M841.938843,402.490051 
	C834.377869,406.686798 827.008423,411.145905 820.929993,417.597717 
	C822.251221,418.190643 823.041077,417.386017 823.873657,416.956635 
	C858.825378,398.930573 896.049255,389.907013 935.277771,388.934692 
	C939.313110,388.834656 940.097412,387.313293 939.061951,383.650848 
	C936.389282,374.197968 933.961548,364.675995 931.417480,355.186584 
	C924.560974,329.612183 917.638123,304.055420 910.847656,278.463531 
	C903.330872,250.134262 895.891052,221.784317 888.526428,193.415176 
	C887.460388,189.308746 885.469788,187.204834 881.122253,188.441284 
	C876.674744,189.706177 878.179077,192.955048 878.927490,195.778519 
	C884.727783,217.659973 890.588135,239.525513 896.406677,261.402161 
	C905.348206,295.020630 914.328796,328.628937 923.168091,362.274323 
	C925.910400,372.712860 924.093750,375.352570 913.460510,377.362518 
	C888.587830,382.064209 864.701538,389.565979 841.938843,402.490051 
M583.987122,338.627808 
	C585.762878,344.871033 587.632202,351.089417 589.299011,357.361633 
	C599.209900,394.655914 609.065979,431.964783 618.961609,469.263123 
	C620.566833,475.313568 620.883911,475.210602 626.721313,472.518097 
	C655.395630,459.291962 684.783264,448.280426 716.434753,444.613556 
	C723.766968,443.764099 731.119934,443.093567 738.463318,442.340668 
	C731.407166,439.761475 724.122253,439.466736 716.924072,439.461609 
	C689.159119,439.441742 662.357422,444.705750 636.460449,454.753845 
	C629.155945,457.587982 624.960876,455.312836 622.984436,447.863831 
	C611.245544,403.621674 599.573242,359.361816 587.834595,315.119568 
	C584.291565,301.766052 580.588257,288.455078 577.004883,275.112122 
	C576.190247,272.078888 574.613647,270.379211 571.265564,271.242554 
	C568.201172,272.032745 566.758789,274.002350 567.337830,277.158844 
	C567.726868,279.279633 568.319336,281.366547 568.886597,283.450714 
	C573.823792,301.590912 578.775940,319.727020 583.987122,338.627808 
M358.013428,206.566269 
	C347.628723,202.174255 347.630646,202.175064 343.377930,212.335114 
	C342.993195,213.254211 342.563080,214.154312 342.152924,215.062759 
	C336.745636,227.038300 336.745514,227.038345 349.177490,231.676422 
	C349.332947,231.734421 349.497192,231.769058 349.652283,231.827972 
	C361.079285,236.169281 361.203369,236.219696 365.945282,224.522568 
	C371.090179,211.831451 373.069183,212.771255 358.013428,206.566269 
M300.291626,387.846649 
	C301.406952,385.067078 302.374084,382.215881 303.674316,379.525696 
	C305.387482,375.981323 304.203094,373.805237 300.815796,372.454529 
	C296.181183,370.606445 291.538788,368.777008 286.883698,366.981232 
	C283.566833,365.701721 281.390228,367.044495 280.159363,370.156769 
	C278.079224,375.416290 276.130127,380.728424 273.995880,385.965454 
	C272.905273,388.641632 273.715515,390.340637 276.047852,391.810425 
	C278.653198,393.452240 281.677368,393.806519 284.447540,394.913361 
	C295.356537,399.272247 295.357056,399.270966 300.291626,387.846649 
M348.152832,266.945862 
	C343.710205,262.327484 337.107086,261.924744 331.959595,258.643250 
	C328.050751,256.151398 325.445343,257.662567 323.867676,261.751099 
	C321.955505,266.706635 320.017395,271.655273 317.940125,276.542999 
	C316.329102,280.333557 317.555206,282.479797 321.325073,283.759186 
	C325.722839,285.251709 330.127411,286.788452 334.360107,288.683350 
	C337.989807,290.308258 340.088623,289.156189 341.385895,285.780701 
	C343.706390,279.742828 345.953857,273.676819 348.152832,266.945862 
M386.872437,171.436096 
	C388.092377,168.158279 389.363953,164.898499 390.516418,161.597122 
	C391.494751,158.794632 390.613861,156.645477 387.839386,155.496231 
	C383.070740,153.520981 378.275940,151.607193 373.468658,149.727554 
	C370.559204,148.589935 368.700287,149.744080 367.573425,152.542847 
	C365.458649,157.795395 363.344238,163.050537 361.084900,168.241592 
	C359.649231,171.540070 360.397552,173.648071 363.858215,174.838882 
	C366.849365,175.868134 369.808014,177.001358 372.742462,178.184265 
	C382.548767,182.137344 382.542145,182.153809 386.872437,171.436096 
M305.772461,312.350372 
	C303.384521,312.689087 302.693604,314.573090 301.923706,316.461853 
	C299.977844,321.235565 298.192383,326.094666 295.908447,330.704468 
	C293.994568,334.567383 295.158905,336.613586 298.862854,337.966705 
	C303.548676,339.678497 308.224121,341.421814 312.870392,343.237579 
	C315.889404,344.417450 317.743195,343.062073 318.865753,340.491974 
	C321.128754,335.310852 323.272186,330.075958 325.378540,324.828552 
	C326.517517,321.990967 325.458344,319.787292 322.713928,318.778992 
	C317.256073,316.773743 312.270996,313.585205 305.772461,312.350372 
M493.544342,283.813171 
	C496.726715,285.256653 499.894012,286.734528 503.095642,288.133911 
	C506.269775,289.521240 509.047699,289.228973 510.594086,285.729218 
	C512.947327,280.403534 515.211792,275.036560 517.400085,269.640930 
	C518.451721,267.047974 517.575928,265.061798 514.915771,264.041046 
	C509.947906,262.134735 504.995056,260.180389 499.970764,258.433502 
	C496.727600,257.305878 494.565155,258.628143 493.370972,261.870148 
	C491.876373,265.927856 490.201416,269.919159 488.604065,273.939056 
	C486.161499,280.086029 486.614899,281.124023 493.544342,283.813171 
M449.007172,374.400543 
	C447.472351,377.725464 446.033722,381.099243 444.375793,384.361572 
	C442.700317,387.658569 443.785217,389.870605 446.906952,391.172729 
	C451.666779,393.158142 456.528656,394.897491 461.314667,396.822205 
	C464.738892,398.199249 466.699646,396.771484 467.924164,393.656616 
	C469.812317,388.853729 471.633942,384.022308 473.638733,379.268372 
	C475.123657,375.747101 474.015381,373.486664 470.640503,372.134369 
	C467.395966,370.834290 464.135406,369.571991 460.860413,368.350677 
	C452.834808,365.357727 452.512970,365.517303 449.007172,374.400543 
M531.174011,167.477798 
	C529.294739,171.376556 531.268738,173.348175 534.712646,174.635742 
	C538.903687,176.202621 543.122986,177.707474 547.244446,179.442520 
	C550.308533,180.732452 552.363892,180.003967 553.657715,176.997787 
	C555.820129,171.973526 557.966797,166.942474 560.122131,161.915176 
	C561.385742,158.967926 560.635315,156.691818 557.731995,155.318268 
	C553.538635,153.334396 549.230652,151.585510 545.085327,149.509201 
	C540.895020,147.410339 538.542664,149.001434 536.984253,152.929565 
	C535.150940,157.550552 533.238831,162.140259 531.174011,167.477798 
M518.514526,230.856537 
	C520.913818,231.994171 523.260193,233.266785 525.726685,234.232849 
	C528.386658,235.274704 530.634216,234.715042 531.879272,231.835144 
	C533.987915,226.957825 536.128479,222.094177 538.211975,217.206192 
	C539.618164,213.907181 538.795105,211.321091 535.471375,209.798340 
	C530.944214,207.724274 526.402466,205.674805 521.803955,203.766541 
	C518.503601,202.396957 516.433167,203.796265 515.273987,207.039612 
	C514.156799,210.165390 512.893250,213.239288 511.672058,216.327332 
	C507.856110,225.977020 505.492065,226.324554 518.514526,230.856537 
M423.047516,439.276947 
	C421.845154,442.288391 423.132904,443.966431 425.957947,444.985199 
	C430.330994,446.562195 434.745422,448.065155 438.991882,449.940125 
	C442.727325,451.589417 445.173737,450.449524 446.664459,447.024048 
	C448.718079,442.305176 450.644989,437.522003 452.389435,432.681091 
	C453.507721,429.577728 452.474701,427.164581 449.231995,425.879089 
	C444.909454,424.165558 440.639648,422.316772 436.298676,420.652710 
	C433.006012,419.390564 430.503662,420.124542 429.142090,423.734314 
	C427.266327,428.707458 425.223572,433.617615 423.047516,439.276947 
M494.775726,319.741913 
	C489.640594,317.420563 484.542542,315.011871 479.355865,312.812042 
	C476.448761,311.579102 473.808136,311.764008 472.400146,315.257355 
	C470.352386,320.338013 468.321869,325.428009 466.138947,330.450989 
	C464.679840,333.808472 465.859039,335.958893 468.970490,337.183777 
	C473.757782,339.068390 478.599915,340.818634 483.453278,342.527924 
	C485.285767,343.173309 487.503967,343.207825 488.277832,341.215790 
	C490.938171,334.367188 495.481628,328.118927 494.775726,319.741913 
z"/>
</svg>